<?xml version="1.0" encoding="UTF-8"?>
<!DOCTYPE svg PUBLIC "-//W3C//DTD SVG 1.1//EN" "http://www.w3.org/Graphics/SVG/1.1/DTD/svg11.dtd">
<!-- Creator: CorelDRAW -->
<svg xmlns="http://www.w3.org/2000/svg" xml:space="preserve" width="1.5063in" height="1.64493in" style="shape-rendering:geometricPrecision; text-rendering:geometricPrecision; image-rendering:optimizeQuality; fill-rule:evenodd; clip-rule:evenodd"
viewBox="0 0 0.623952 0.681374"
 xmlns:xlink="http://www.w3.org/1999/xlink">
 <defs>
  <style type="text/css">
   <![CDATA[
    .str0 {stroke:#ED3237;stroke-width:0.00575189}
    .fil4 {fill:none}
    .fil3 {fill:#3E4095}
    .fil1 {fill:#ED3237}
    .fil2 {fill:#FEFEFE}
    .fil6 {fill:#ED3237;fill-rule:nonzero}
    .fil5 {fill:#FEFEFE;fill-rule:nonzero}
    .fil0 {fill:#FEFEFE;fill-rule:nonzero}
   ]]>
  </style>
 </defs>
 <g id="Layer_x0020_1">
  <metadata id="CorelCorpID_0Corel-Layer"/>
  <g id="_243820264">
   <path id="_243822688" class="fil0" d="M0.00253755 0.663856c0,-0.00173845 0.000574047,-0.00311323 0.00174987,-0.00416021 0.00115951,-0.00103557 0.00281642,-0.00155906 0.00493648,-0.00155906 0.00149383,0 0.00268269,0.000363672 0.00356823,0.00109102 0.000896949,0.000743652 0.00134868,0.00177107 0.00134868,0.00309855 0,0.00167485 -0.000593617,0.00303006 -0.00181184,0.00406889 -0.00119702,0.0010372 -0.00276913,0.00155906 -0.00471632,0.00155906 -0.0015982,0 -0.00284904,-0.000362041 -0.0037362,-0.00108775 -0.00089858,-0.00071919 -0.0013389,-0.00172377 -0.0013389,-0.00301049zm0.0165446 0c0,-0.00173845 0.000577309,-0.00311323 0.00176454,-0.00416021 0.00115951,-0.00103557 0.00280663,-0.00155906 0.00493159,-0.00155906 0.00148893,0 0.00267454,0.000363672 0.00357312,0.00109102 0.000893687,0.000743652 0.00134053,0.00177107 0.00134053,0.00309855 0,0.00167485 -0.000588725,0.00303006 -0.00180531,0.00406889 -0.00119539,0.0010372 -0.00277728,0.00155906 -0.00471795,0.00155906 -0.0015982,0 -0.00284251,-0.000362041 -0.00374435,-0.00108775 -0.000893687,-0.00071919 -0.00134216,-0.00172377 -0.00134216,-0.00301049zm0.0165626 0c0,-0.00173845 0.000574047,-0.00311323 0.00175313,-0.00416021 0.00117093,-0.00103557 0.00280663,-0.00155906 0.00493322,-0.00155906 0.00149057,0 0.00268106,0.000363672 0.00357475,0.00109102 0.000895318,0.000743652 0.00134216,0.00177107 0.00134216,0.00309855 0,0.00167485 -0.000590355,0.00303006 -0.00179879,0.00406889 -0.00119865,0.0010372 -0.0027838,0.00155906 -0.0047261,0.00155906 -0.00158352,0 -0.00283925,-0.000362041 -0.0037362,-0.00108775 -0.00089858,-0.00071919 -0.00134216,-0.00172377 -0.00134216,-0.00301049zm0.0290465 0.00389765c-0.00321108,0 -0.0057421,-0.00102415 -0.00759308,-0.00307083 -0.00184445,-0.00205157 -0.00276586,-0.00492506 -0.00276586,-0.00862375 0,-0.00381774 0.000784422,-0.00744467 0.00236958,-0.0109036 0.00156232,-0.00344918 0.00363998,-0.00612698 0.00618732,-0.00801546 0.00256038,-0.00190316 0.00537354,-0.0028474 0.00842969,-0.0028474 0.00212332,0 0.00394821,0.000401181 0.00549422,0.0012117 0.00154601,0.000808885 0.00273488,0.00197818 0.00359106,0.00352419l0.000252776 0 0.00187381 -0.0041227 0.00760939 0 -0.00780019 0.0322657 -0.00750665 0 0.000450105 -0.00418794 -0.00011905 0c-0.00294036,0.00318172 -0.00642705,0.00477014 -0.0104731,0.00477014zm0.00386666 -0.00701088c0.00151014,0 0.00297624,-0.000650696 0.00436896,-0.00194556 0.00139435,-0.00127693 0.00251798,-0.00303658 0.0033872,-0.0052284 0.000849655,-0.00220976 0.00126714,-0.00470817 0.00126714,-0.00749686 0,-0.00136662 -0.000417489,-0.00249678 -0.00126062,-0.00339373 -0.000843132,-0.000901841 -0.00195372,-0.00134705 -0.00331871,-0.00134705 -0.00148078,0 -0.00292079,0.000694728 -0.00426458,0.00208744 -0.00133238,0.00136989 -0.00241198,0.00320618 -0.00320292,0.00547302 -0.000797469,0.00227988 -0.00120191,0.00453204 -0.00120191,0.00676626 0,0.00168953 0.000368564,0.00296809 0.00109754,0.00380632 0.000737129,0.000849655 0.00177596,0.00127856 0.0031279,0.00127856zm0.0334415 0.00701088c-0.00321434,0 -0.0057421,-0.00102904 -0.00758656,-0.00309366 -0.00184771,-0.00205646 -0.00276913,-0.00494953 -0.00276913,-0.008658 0,-0.00376882 0.000769745,-0.00737944 0.00234022,-0.0108139 0.00156558,-0.00343613 0.00362693,-0.00610741 0.00618405,-0.00801709 0.00255386,-0.00191947 0.0053768,-0.00287839 0.00845741,-0.00287839 0.00178901,0 0.0033448,0.000350625 0.00464293,0.00106166 0.0012965,0.000724082 0.0025294,0.00193904 0.00368564,0.00367423l0.000272346 0 6.1971e-005 -0.000810516c0.00011905,-0.00211354 0.000404442,-0.00399713 0.0008203,-0.00562958l0.00249189 -0.0103394 0.00985991 0 -0.0108123 0.0449225 -0.00751317 0 0.00045989 -0.00418794 -0.000135358 0c-0.00154928,0.00167648 -0.00317357,0.00288654 -0.00487125,0.00363998 -0.00167648,0.00075996 -0.00355355,0.00113016 -0.00558881,0.00113016zm0.00413901 -0.00701088c0.00144653,0 0.00283925,-0.00065885 0.00421077,-0.00197818 0.00136499,-0.0013177 0.00246253,-0.00307898 0.00329914,-0.00527243 0.000830085,-0.00219019 0.00124757,-0.00455161 0.00124757,-0.00707285 0,-0.00154928 -0.000417489,-0.00277891 -0.00123779,-0.00369543 -0.0008203,-0.000929565 -0.00193578,-0.00139272 -0.00335459,-0.00139272 -0.00149057,0 -0.00291101,0.000694728 -0.00426132,0.00208744 -0.00133564,0.00136989 -0.00241524,0.00320618 -0.00320618,0.00547302 -0.000794207,0.00227988 -0.00119213,0.00453204 -0.00119213,0.00676626 0,0.0033872 0.00149709,0.00508488 0.00449453,0.00508488zm0.0331594 0.00701088c-0.00320455,0 -0.00573558,-0.00102904 -0.00758329,-0.00309366 -0.00184445,-0.00205646 -0.00276097,-0.00494953 -0.00276097,-0.008658 0,-0.00376882 0.000764853,-0.00737944 0.00234185,-0.0108139 0.0015558,-0.00343613 0.0036302,-0.00610741 0.00617427,-0.00801709 0.00255712,-0.00191947 0.00538332,-0.00287839 0.0084672,-0.00287839 0.00178901,0 0.00334154,0.000350625 0.00463967,0.00106166 0.00128998,0.000724082 0.0025294,0.00193904 0.00368238,0.00367423l0.000265823 0 6.84943e-005 -0.000810516c0.00011905,-0.00211354 0.000404442,-0.00399713 0.000817039,-0.00562958l0.00249515 -0.0103394 0.00986317 0 -0.0108123 0.0449225 -0.00751643 0 0.000466413 -0.00418794 -0.000135358 0c-0.00155254,0.00167648 -0.00318009,0.00288654 -0.00486799,0.00363998 -0.00168626,0.00075996 -0.00356007,0.00113016 -0.00560511,0.00113016zm0.00415206 -0.00701088c0.00143675,0 0.00283925,-0.00065885 0.00420424,-0.00197818 0.00136499,-0.0013177 0.00245927,-0.00307898 0.00330566,-0.00527243 0.000823562,-0.00219019 0.00123779,-0.00455161 0.00123779,-0.00707285 0,-0.00154928 -0.000414227,-0.00277891 -0.00123127,-0.00369543 -0.0008203,-0.000929565 -0.00193252,-0.00139272 -0.00335459,-0.00139272 -0.00149057,0 -0.00290774,0.000694728 -0.0042548,0.00208744 -0.00134542,0.00136989 -0.00241524,0.00320618 -0.00321597,0.00547302 -0.000790946,0.00227988 -0.00119539,0.00453204 -0.00119539,0.00676626 0,0.0033872 0.00150361,0.00508488 0.00450431,0.00508488zm0.0304115 -0.0334105c0,-0.00167485 0.000528384,-0.00293384 0.00156232,-0.00379328 0.00102741,-0.00085944 0.00250493,-0.00128998 0.00441136,-0.00128998 0.00159494,0 0.0028099,0.000308224 0.00364324,0.000896949 0.000825193,0.000598509 0.00123779,0.00145795 0.00123779,0.00256854 0,0.00153786 -0.000482722,0.00279033 -0.00144653,0.00373457 -0.000965443,0.00095892 -0.00245601,0.00142696 -0.00445213,0.00142696 -0.00329914,0 -0.00495605,-0.00117908 -0.00495605,-0.00354376zm0.000528384 0.0398392l-0.00987622 0 0.00777247 -0.0322657 0.00987948 0 -0.00777573 0.0322657zm0.0382899 0l-0.00987133 0 0.00450431 -0.0188473c0.000340841,-0.00131281 0.000512076,-0.0024609 0.000512076,-0.00344428 0,-0.00236305 -0.00117908,-0.00354866 -0.00354213,-0.00354866 -0.0020059,0 -0.00382753,0.00109428 -0.00547465,0.00329751 -0.00163082,0.00219345 -0.00293384,0.00525286 -0.00387319,0.0091766l-0.00320781 0.0133662 -0.00986644 0 0.00777573 -0.0322657 0.00754089 0 -0.00069962 0.00597042 0.000210375 0c0.00318009,-0.00438689 0.0070598,-0.0065836 0.0116326,-0.0065836 0.00301049,0 0.00535071,0.000807254 0.00699457,0.00241361 0.00165528,0.0015982 0.00247232,0.00389765 0.00247232,0.00687389 0,0.00141066 -0.000242992,0.00314584 -0.000748545,0.00520883l-0.00435917 0.0183826zm0.0448279 -0.03222l-0.00115462 0.00479623 -0.00570622 0.0011905c0.00035878,0.000985013 0.000531646,0.00213474 0.000531646,0.00340514 0,0.00374109 -0.00132585,0.00671081 -0.00395799,0.00889936 -0.00266149,0.00218366 -0.00625255,0.00327631 -0.0107993,0.00327631 -0.00129324,0 -0.00237284,-9.45873e-005 -0.00324695,-0.000282131 -0.00183141,0.000513707 -0.00274629,0.00127204 -0.00274629,0.0022489 0,0.000665373 0.000314747,0.00112689 0.000981751,0.00141718 0.000642541,0.000283762 0.00161451,0.000505553 0.00291101,0.000662111l0.0044929 0.000525123c0.0035617,0.00039955 0.0061547,0.00120517 0.00778062,0.00242992 0.00162755,0.00121985 0.00245112,0.00299907 0.00245112,0.00530178 0,0.00405747 -0.00171725,0.00717396 -0.00511424,0.00932501 -0.0034133,0.00215268 -0.00829107,0.00322738 -0.0146268,0.00322738 -0.00454508,0 -0.00809048,-0.000715928 -0.0106411,-0.00217714 -0.00254407,-0.00144653 -0.003821,-0.00344754 -0.003821,-0.00598999 0,-0.0019635 0.000751806,-0.00364977 0.00225216,-0.00506205 0.00149709,-0.00141555 0.00383731,-0.00258484 0.00703045,-0.00351604 -0.00161777,-0.000901841 -0.00243481,-0.00218856 -0.00243481,-0.00383568 0,-0.00136336 0.000495768,-0.00254733 0.00146447,-0.00353561 0.00098012,-0.000989905 0.00257669,-0.00194067 0.00480765,-0.00284414 -0.00142696,-0.000950766 -0.00248373,-0.00202384 -0.00315074,-0.00323391 -0.000676789,-0.00121007 -0.00101437,-0.00269085 -0.00101437,-0.00441136 0,-0.00384057 0.00136173,-0.00687715 0.00411292,-0.00912115 0.00274792,-0.00223096 0.00647597,-0.00335459 0.0111972,-0.00335459 0.00180205,0 0.00362367,0.000225053 0.00543225,0.00065885l0.0129682 0zm-0.0269264 0.0324059c-0.00232065,0.000254407 -0.00406562,0.000810516 -0.00526101,0.00164386 -0.0011856,0.000826824 -0.00178901,0.00187218 -0.00178901,0.00313932 0,0.00221954 0.00212332,0.00332686 0.00636181,0.00332686 0.00329914,0 0.00579918,-0.000433797 0.00747729,-0.00130628 0.00167974,-0.000864332 0.00252124,-0.00208908 0.00252124,-0.00366444 0,-0.000748545 -0.000348995,-0.00133564 -0.00106166,-0.00173193 -0.000704512,-0.000407704 -0.00221465,-0.000748545 -0.00450921,-0.00101111l-0.00373946 -0.000396288zm0.00817039 -0.0275494c-0.00169605,0 -0.00303984,0.000725713 -0.00409009,0.00220812 -0.00104372,0.001471 -0.00155254,0.00331382 -0.00155254,0.00553173 0,0.00228314 0.00113342,0.00342308 0.00337742,0.00342308 0.00163897,0 0.00297461,-0.000724082 0.00398571,-0.00220486 0.00100784,-0.00146773 0.00151666,-0.00332686 0.00151666,-0.00558718 0,-0.00224074 -0.0010796,-0.0033709 -0.00323717,-0.0033709zm0.0459678 0.0186777c0.00120354,-0.00294852 0.00221139,-0.00509141 0.00302353,-0.00644172l0.0097376 -0.0171382 0.0105807 0 -0.0197965 0.0322657 -0.010597 0 -0.00451899 -0.0322657 0.00966585 0 0.00148078 0.016905c0.000164712,0.00256527 0.00022016,0.00479134 0.00022016,0.00667493l0.000203852 0zm0.030188 0.00926793c-0.00320618,0 -0.00574047,-0.00102415 -0.00758819,-0.00307083 -0.00184282,-0.00205157 -0.00276423,-0.00492506 -0.00276423,-0.00862375 0,-0.00381774 0.000787684,-0.00744467 0.00235979,-0.0109036 0.00157537,-0.00344918 0.00364324,-0.00612698 0.00619058,-0.00801546 0.00256364,-0.00190316 0.00536702,-0.0028474 0.00842643,-0.0028474 0.00212985,0 0.00395473,0.000401181 0.005504,0.0012117 0.00153623,0.000808885 0.00274466,0.00197818 0.00359106,0.00352419l0.000256038 0 0.00187055 -0.0041227 0.00760939 0 -0.00780182 0.0322657 -0.00750991 0 0.000464783 -0.00418794 -0.000153297 0c-0.00291916,0.00318172 -0.00640095,0.00477014 -0.0104552,0.00477014zm0.00387645 -0.00701088c0.00150687,0 0.00296156,-0.000650696 0.00435917,-0.00194556 0.00139924,-0.00127693 0.00252124,-0.00303658 0.0033872,-0.0052284 0.000841501,-0.00220976 0.00127693,-0.00470817 0.00127693,-0.00749686 0,-0.00136662 -0.000435428,-0.00249678 -0.00126714,-0.00339373 -0.000836609,-0.000901841 -0.00195535,-0.00134705 -0.00332197,-0.00134705 -0.0014922,0 -0.00291753,0.000694728 -0.00425643,0.00208744 -0.00133564,0.00136989 -0.00241198,0.00320618 -0.00321434,0.00547302 -0.000787684,0.00227988 -0.00119702,0.00453204 -0.00119702,0.00676626 0,0.00168953 0.000373457,0.00296809 0.00109917,0.00380632 0.000732236,0.000849655 0.00177596,0.00127856 0.00313443,0.00127856zm0.0312057 0.00642868l-0.00987296 0 0.0108221 -0.0449225 0.00987133 0 -0.0108205 0.0449225zm0.01486 -0.0322657l0.00985502 0 -0.00448801 0.0188457c-0.000347364,0.00130139 -0.000525123,0.00245601 -0.000525123,0.00342961 0,0.00237447 0.0011856,0.0035617 0.00355192,0.0035617 0.00199286,0 0.00381448,-0.00109917 0.0054616,-0.00329588 0.00164386,-0.00219997 0.0029371,-0.00526754 0.00387971,-0.00918312l0.00321434 -0.013358 0.00985991 0 -0.00777573 0.0322657 -0.00753437 0 0.000689835 -0.00596879 -0.00020059 0c-0.00316704,0.00437059 -0.00705328,0.00655099 -0.0116359,0.00655099 -0.00300722,0 -0.00531483,-0.0007991 -0.00692281,-0.00237936 -0.00159168,-0.00158678 -0.00238915,-0.0038846 -0.00238915,-0.00688857 0,-0.00178411 0.000269085,-0.00383568 0.000797469,-0.00615796l0.00416184 -0.017422zm0.052191 0.00565241c-0.00192273,0 -0.00373457,0.000768114 -0.00543877,0.00230108 -0.00171073,0.00154112 -0.0028262,0.00342634 -0.00334154,0.00562958l0.00147426 0c0.00338394,0 0.0060226,-0.00045989 0.0079062,-0.00139598 0.00189175,-0.000926303 0.00284577,-0.0022016 0.00284577,-0.00379491 0,-0.00181999 -0.00114809,-0.00273977 -0.00344591,-0.00273977zm-0.00537354 0.0271955c-0.0045989,0 -0.0081606,-0.00108939 -0.01069,-0.00325837 -0.00253755,-0.00217714 -0.00380469,-0.00525123 -0.00380469,-0.00920922 0,-0.00398408 0.00089858,-0.00762406 0.00270063,-0.0109004 0.00180531,-0.0032812 0.00424175,-0.00579103 0.00733378,-0.00751154 0.00307898,-0.00173193 0.00656403,-0.00258158 0.0104666,-0.00258158 0.00385688,0 0.00687715,0.000784422 0.00903472,0.00235001 0.00217551,0.00157374 0.00325185,0.00371337 0.00325185,0.00645803 0,0.00360247 -0.00182162,0.00637323 -0.00547465,0.00832532 -0.00365303,0.00195372 -0.00887001,0.00293058 -0.0156477,0.00293058l-0.00166669 0 -6.03402e-005 0.000608294 0 0.000572416c0,0.00175476 0.000562632,0.00313606 0.00168137,0.00415043 0.00113505,0.00100621 0.00274466,0.00151503 0.00483863,0.00151503 0.0018999,0 0.00363346,-0.000189175 0.00517621,-0.000546323 0.00156232,-0.000370195 0.00343613,-0.00101274 0.00564262,-0.00193741l0 0.00655588c-0.00375251,0.00165691 -0.00802525,0.00247884 -0.0127823,0.00247884zm0.0516822 -0.00701088c0.00142207,0 0.00318988,-0.000348995 0.00528547,-0.001016l0 0.00649228c-0.00239078,0.00102415 -0.00531157,0.0015346 -0.00870856,0.0015346 -0.00326979,0 -0.00568176,-0.000609925 -0.00722125,-0.00182325 -0.00155254,-0.00121333 -0.00230434,-0.00308224 -0.00230434,-0.00562958 0,-0.000947504 0.00012068,-0.00202874 0.000393027,-0.00322575l0.00377208 -0.0155694 -0.0049903 0 0.000945873 -0.00424012 0.00642705 -0.00242502 0.00432329 -0.00681844 0.00636834 0 -0.00160962 0.00688367 0.00928913 0 -0.00164386 0.00659991 -0.00924346 0 -0.00377697 0.0155694c-0.000135358,0.000569155 -0.000194067,0.00108449 -0.000194067,0.00152971 0,0.00141555 0.000963812,0.002138 0.00288818,0.002138zm0.0344885 -0.013663c0,-0.00378675 -0.00155906,-0.00568829 -0.00470001,-0.00568829 -0.00162592,0 -0.00308877,0.000588725 -0.00439831,0.00175476 -0.00130628,0.0011856 -0.00236468,0.00289633 -0.00318172,0.00517784 -0.000813777,0.0022652 -0.00123779,0.00460869 -0.00123779,0.00701903 0,0.00354702 0.00165854,0.0053344 0.00493485,0.0053344 0.00163082,0 0.00310834,-0.000585463 0.00442114,-0.0017727 0.00131281,-0.00117908 0.00233696,-0.00283436 0.00306267,-0.00493322 0.000742021,-0.00211191 0.00109917,-0.0044032 0.00109917,-0.00689183zm0.0099333 0c0,0.00406236 -0.000758329,0.00765668 -0.00230108,0.0108009 -0.00154928,0.0031328 -0.00376882,0.0055725 -0.00668635,0.00728159 -0.00289633,0.00172377 -0.00635529,0.00259137 -0.0103443,0.00259137 -0.004276,0 -0.00767299,-0.00113016 -0.0102203,-0.00340025 -0.00255386,-0.00225216 -0.00382426,-0.00525938 -0.00382426,-0.00901026 0,-0.00410313 0.000777899,-0.00775942 0.00235001,-0.0109575 0.00156558,-0.00320455 0.00380469,-0.00568992 0.00676462,-0.00745935 0.00296156,-0.00175802 0.00639443,-0.00263377 0.0103573,-0.00263377 0.00428905,0 0.00767625,0.00113179 0.0101681,0.00340677 0.00250493,0.00226357 0.0037362,0.00540126 0.0037362,0.00938045zm0.0288948 0.0200917l-0.00986317 0 0.0108188 -0.0449225 0.0098697 0 -0.0108254 0.0449225zm0.0168186 -0.0398392c0,-0.00167485 0.000518599,-0.00293384 0.00156884,-0.00379328 0.00102415,-0.00085944 0.00250167,-0.00128998 0.00439831,-0.00128998 0.00159983,0 0.00281642,0.000308224 0.00364161,0.000896949 0.000836609,0.000598509 0.00124594,0.00145795 0.00124594,0.00256854 0,0.00153786 -0.000484352,0.00279033 -0.00144653,0.00373457 -0.00095892,0.00095892 -0.00244949,0.00142696 -0.00445376,0.00142696 -0.0033024,0 -0.00495442,-0.00117908 -0.00495442,-0.00354376zm0.000518599 0.0398392l-0.00986644 0 0.00777573 -0.0322657 0.00987785 0 -0.00778715 0.0322657zm0.00478644 0.0142028c-0.00227173,0 -0.00416837,-0.000236468 -0.00571438,-0.000715928l0 -0.00699131c0.00135195,0.000407704 0.00260278,0.000609925 0.00377045,0.000609925 0.00134053,0 0.00251472,-0.000381611 0.00352256,-0.00114646 0.00100458,-0.000784422 0.0017042,-0.00203526 0.00212658,-0.00375903l0.00668961 -0.0278658 -0.00534745 0 0.000985013 -0.00417815 0.00599814 -0.00242176 0.000593617 -0.00243155c0.000895318,-0.00366444 0.00241198,-0.00634061 0.00454671,-0.00801383 0.00212332,-0.001683 0.00511261,-0.0025245 0.00896296,-0.0025245 0.00286371,0 0.00543062,0.000464783 0.00771376,0.00141229l-0.00262235 0.00646945c-0.0015134,-0.00060014 -0.00296645,-0.00089858 -0.00436569,-0.00089858 -0.00125736,0 -0.00225542,0.000384873 -0.00301864,0.00115462 -0.000761591,0.000768114 -0.00127367,0.00179227 -0.00154764,0.00303658l-0.000389765 0.00179553 0.00718864 0 -0.00161777 0.00659991 -0.00719842 0 -0.00705491 0.0291557c-0.00169279,0.00714624 -0.00609762,0.0107128 -0.013221,0.0107128zm0.0467555 -0.0408161c-0.00192436,0 -0.00374272,0.000768114 -0.00544366,0.00230108 -0.0017091,0.00154112 -0.00282294,0.00342634 -0.00334154,0.00562958l0.00147426 0c0.00337742,0 0.00601771,-0.00045989 0.00791761,-0.00139598 0.00189012,-0.000926303 0.00283925,-0.0022016 0.00283925,-0.00379491 0,-0.00181999 -0.00114646,-0.00273977 -0.00344591,-0.00273977zm-0.00537028 0.0271955c-0.00460869,0 -0.00815734,-0.00108939 -0.0106884,-0.00325837 -0.00255386,-0.00217714 -0.00380143,-0.00525123 -0.00380143,-0.00920922 0,-0.00398408 0.000887164,-0.00762406 0.00268922,-0.0109004 0.00181836,-0.0032812 0.00425317,-0.00579103 0.00733215,-0.00751154 0.00309529,-0.00173193 0.00656567,-0.00258158 0.0104649,-0.00258158 0.00386014,0 0.00688367,0.000784422 0.00903961,0.00235001 0.00217062,0.00157374 0.00325022,0.00371337 0.00325022,0.00645803 0,0.00360247 -0.00182488,0.00637323 -0.00547302,0.00832532 -0.00363998,0.00195372 -0.00886512,0.00293058 -0.0156363,0.00293058l-0.00166832 0 -7.82792e-005 0.000608294 0 0.000572416c0,0.00175476 0.000567524,0.00313606 0.00168953,0.00415043 0.00113668,0.00100621 0.0027414,0.00151503 0.00483863,0.00151503 0.00189501,0 0.00363346,-0.000189175 0.00518273,-0.000546323 0.00155906,-0.000370195 0.00343776,-0.00101274 0.00563936,-0.00193741l0 0.00655588c-0.00376392,0.00165691 -0.00802851,0.00247884 -0.0127807,0.00247884z"/>
   <path id="_243822664" class="fil1" d="M0.0570557 0.408275l0 -0.137248 0.070205 -0.0335214 0 -0.0942921 0.101867 -0.0505243 0 -0.0518078 0.099227 -0.0359562 0 0.40335c0,0 -0.270107,0.00104535 -0.271299,0z"/>
   <polygon id="_243822160" class="fil2" points="0.253204,0.0856146 0.268471,0.0856146 0.268471,0.137918 0.253204,0.137918 "/>
   <polygon id="_243822352" class="fil2" points="0.281365,0.0795789 0.296641,0.0795789 0.296641,0.131876 0.281365,0.131876 "/>
   <polygon id="_243821680" class="fil2" points="0.306636,0.0691172 0.321899,0.0691172 0.321899,0.121409 0.306636,0.121409 "/>
   <polygon id="_243821632" class="fil2" points="0.253204,0.161195 0.268471,0.161195 0.268471,0.213492 0.253204,0.213492 "/>
   <polygon id="_243821944" class="fil2" points="0.281365,0.155148 0.296641,0.155148 0.296641,0.207445 0.281365,0.207445 "/>
   <polygon id="_243821488" class="fil2" points="0.307945,0.150705 0.323218,0.150705 0.323218,0.203004 0.307945,0.203004 "/>
   <polygon id="_243821416" class="fil2" points="0.254698,0.243509 0.269975,0.243509 0.269975,0.295801 0.254698,0.295801 "/>
   <polygon id="_243821800" class="fil2" points="0.282123,0.239443 0.297383,0.239443 0.297383,0.291733 0.282123,0.291733 "/>
   <polygon id="_243821824" class="fil2" points="0.307945,0.239608 0.323218,0.239608 0.323218,0.291908 0.307945,0.291908 "/>
   <polygon id="_243821536" class="fil2" points="0.254698,0.325653 0.269975,0.325653 0.269975,0.377955 0.254698,0.377955 "/>
   <polygon id="_243821704" class="fil2" points="0.283271,0.325661 0.298536,0.325661 0.298536,0.377955 0.283271,0.377955 "/>
   <polygon id="_243822112" class="fil2" points="0.309384,0.325576 0.32465,0.325576 0.32465,0.377878 0.309384,0.377878 "/>
   <path id="_243821512" class="fil3" d="M0.538264 0.41197l0 -0.160135 -0.106928 -0.0465826 0 -0.0800665 -0.0371223 -0.0130922 0 -0.0538691 -0.0673706 -0.0582267 0 0.411972c0,0 0.214726,0.00145632 0.211421,0z"/>
   <polyline id="_243821224" class="fil4 str0" points="0.0570557,0.408275 0.0570557,0.271027 0.127261,0.237506 0.127261,0.143213 0.229128,0.0926891 0.229128,0.0408813 0.328355,0.00492506 "/>
   <path id="_243821152" class="fil3" d="M0.0215626 0.408244l0.580683 0c0.0118658,0 0.0215659,0.00854711 0.0215659,0.018986l0 0.0680034c0,0.0104437 -0.00971314,0.0222443 -0.0215659,0.0222443l-0.580683 0c-0.0118593,0 -0.0215626,-0.00854384 -0.0215626,-0.018986l0 -0.0680115c0,-0.0104389 0.00970335,-0.0222362 0.0215626,-0.0222362z"/>
   <path id="_243820984" class="fil5" d="M0.0305305 0.497952l0 -0.0690243 0.0537501 0 0 0.0116832 -0.0379116 0 0 0.016331 0.0327354 0 0 0.0116832 -0.0327354 0 0 0.029327 -0.0158385 0zm0.115509 0l0 -0.0690243 0.0581158 0 0 0.0116832 -0.0422887 0 0 0.0153003 0.0393402 0 0 0.0116212 -0.0393402 0 0 0.0187903 0.0437825 0 0 0.0116293 -0.0596096 0zm0.121528 0l0 -0.0690243 0.0236925 0 0.0142158 0.0470833 0.0140593 -0.0470833 0.0237447 0 0 0.0690243 -0.0146985 0 0 -0.0543306 -0.0155678 0.0543306 -0.01524 0 -0.0155172 -0.0543306 0 0.0543306 -0.0146888 0zm0.21083 0l-0.0172328 0 -0.00683638 -0.0156787 -0.0313378 0 -0.00646292 0.0156787 -0.0167893 0 0.0305354 -0.0690243 0.0167371 0 0.0313867 0.0690243zm-0.0291541 -0.0273031l-0.010796 -0.0256217 -0.0105856 0.0256217 0.0213816 0zm0.0862914 -0.0417212l0.031341 0c0.00620689,0 0.0108417,0.000228314 0.0138913,0.000693097 0.00304636,0.000445213 0.0057682,0.00139598 0.00817365,0.00284577 0.00241198,0.00144001 0.00439831,0.00335296 0.0060063,0.00576657 0.00160635,0.00239404 0.00240382,0.0050963 0.00240382,0.00807091 0,0.00322902 -0.000981751,0.00620036 -0.0029583,0.00889936 -0.00198144,0.00270063 -0.00466413,0.00472937 -0.00804155,0.00607968 0.00476198,0.00121822 0.00844926,0.00330729 0.0109999,0.00624929 0.00257343,0.0029583 0.00386014,0.00643194 0.00386014,0.0104128 0,0.0031279 -0.000823562,0.00618732 -0.00248863,0.00915377 -0.00166343,0.00296319 -0.00392211,0.00533929 -0.00678746,0.0071071 -0.00286861,0.00177433 -0.00640421,0.00286208 -0.0106231,0.00327794 -0.00262235,0.00023973 -0.00899395,0.00039955 -0.0190969,0.000468044l-0.0266801 0 0 -0.0690243zm0.015845 0.0114907l0 0.0159641 0.0103655 0c0.00616775,0 0.0100083,-8.31716e-005 0.0114989,-0.000242992 0.00270226,-0.000273977 0.00483863,-0.00109265 0.00639117,-0.00246253 0.00155254,-0.0013601 0.00231739,-0.00316704 0.00231739,-0.005398 0,-0.002138 -0.000657219,-0.00387645 -0.00199286,-0.00520883 -0.00134868,-0.00132911 -0.00333828,-0.00213474 -0.00597042,-0.00241361 -0.00156884,-0.00015982 -0.00607642,-0.000238099 -0.0135244,-0.000238099l-0.00908528 0zm0 0.0274499l0 0.0184543 0.0146333 0c0.0057209,0 0.00932827,-0.000135358 0.0108612,-0.000424012 0.00236305,-0.000368564 0.00427111,-0.00130139 0.00575189,-0.00274629 0.00147915,-0.00146937 0.00222443,-0.00342634 0.00222443,-0.00586931 0,-0.00207114 -0.000577309,-0.003821 -0.0017091,-0.00526754 -0.00115299,-0.0014498 -0.00279685,-0.00250819 -0.00494463,-0.00316541 -0.00216572,-0.000662111 -0.00685269,-0.000981751 -0.0140446,-0.000981751l-0.0127726 0z"/>
   <path id="_243820840" class="fil6" d="M0.000492506 0.586878l0 -0.0370668 0.0136353 0c0.00516316,0 0.0085308,0.000189175 0.0101013,0.000556108 0.00240872,0.000551216 0.00444397,0.00176128 0.00607153,0.00363346 0.00162755,0.0018575 0.00244296,0.00426948 0.00244296,0.00721147 0,0.00228477 -0.000469675,0.00419446 -0.00140902,0.00574047 -0.000949135,0.00155091 -0.00213311,0.00277239 -0.0035878,0.00366281 -0.00144327,0.000872487 -0.00290448,0.00145958 -0.00439831,0.00174497 -0.00202874,0.000353887 -0.00497236,0.0005398 -0.00882598,0.0005398l-0.00552847 0 0 0.0139777 -0.00850144 0zm0.00850144 -0.0307947l0 0.0105155 0.0046413 0c0.00335459,0 0.00559696,-0.000190805 0.00672548,-0.00057894 0.00112037,-0.000393027 0.00201243,-0.000993167 0.00265334,-0.00181999 0.00063928,-0.000841501 0.000965443,-0.00178737 0.000965443,-0.00288165 0,-0.00135358 -0.000463152,-0.0024609 -0.00134705,-0.00333991 -0.000901841,-0.000872487 -0.00205157,-0.00142859 -0.00342308,-0.00164386 -0.00102089,-0.000172866 -0.00306267,-0.000251146 -0.0061123,-0.000251146l-0.00410313 0zm0.0307441 0.0307947l0 -0.0370668 0.0179047 0c0.00449127,0 0.00776105,0.000331056 0.00979468,0.00099969 0.00204178,0.000667004 0.00367749,0.00184608 0.00490549,0.00354866 0.00122964,0.00171073 0.00182488,0.00365303 0.00182488,0.00583995 0,0.00278706 -0.000923042,0.00508978 -0.00277402,0.00689998 -0.00185098,0.00180368 -0.00463804,0.00295015 -0.00833836,0.00341493 0.00184282,0.000955658 0.00336111,0.00198633 0.00455976,0.00311323 0.00119539,0.00113668 0.00280011,0.00313932 0.00483211,0.0060226l0.00515012 0.00722778 -0.01016 0 -0.00614981 -0.00806438c-0.00218692,-0.00288818 -0.00368401,-0.00470327 -0.00448801,-0.00545019 -0.000800731,-0.000751806 -0.00166017,-0.00126225 -0.00254733,-0.00154112 -0.000908364,-0.0002805 -0.00233044,-0.000420751 -0.00428905,-0.000420751l-0.00171399 0 0 0.0154764 -0.00851123 0zm0.00851123 -0.0213947l0.00627864 0c0.0040803,0 0.00663742,-0.000145143 0.00765505,-0.000446844 0.00100458,-0.000296809 0.00179553,-0.000828455 0.00237936,-0.00157374 0.000564262,-0.000742021 0.000857809,-0.00166017 0.000857809,-0.00277239 0,-0.00125899 -0.000384873,-0.00225542 -0.00113342,-0.00303169 -0.000764853,-0.000761591 -0.00182488,-0.00124594 -0.00321271,-0.00145143 -0.000686574,-7.991e-005 -0.00274792,-0.000123942 -0.00620036,-0.000123942l-0.00662437 0 0 0.00940002zm0.0322135 0.00309692c0,-0.00378349 0.000640911,-0.00695706 0.0019211,-0.00951744 0.000960551,-0.00187707 0.00226683,-0.00358453 0.00392211,-0.00507999 0.00166343,-0.00149546 0.00346875,-0.00260767 0.00544203,-0.00333013 0.00262561,-0.000989905 0.00564588,-0.00148078 0.00909506,-0.00148078 0.00619384,0 0.0111515,0.00169768 0.0148763,0.0050963 0.00372315,0.00337579 0.00558391,0.00808722 0.00558391,0.0141294 0,0.00598346 -0.00184445,0.0106639 -0.00554477,0.0140478 -0.00369217,0.0033709 -0.00863843,0.00506531 -0.014816,0.00506531 -0.00625744,0 -0.0112396,-0.00167811 -0.0149383,-0.00503596 -0.00369706,-0.00336763 -0.00554151,-0.00800404 -0.00554151,-0.0138946zm0.008764 -0.000251146c0,0.00418957 0.00110243,0.00737292 0.0033024,0.00954517 0.00219834,0.00216083 0.00499519,0.00324206 0.00839055,0.00324206 0.0033709,0 0.00615633,-0.00106982 0.00834325,-0.00323065 0.00216246,-0.00215105 0.00324369,-0.00536702 0.00324369,-0.00966585 0,-0.00425154 -0.00104698,-0.00741369 -0.00315563,-0.00950766 -0.00212332,-0.00208908 -0.00493322,-0.00313606 -0.00843132,-0.00313606 -0.00350625,0 -0.00633246,0.00106166 -0.00848514,0.00317357 -0.00213148,0.0021168 -0.00320781,0.00530178 -0.00320781,0.00957941zm0.0387107 0.0185489l0 -0.0370668 0.0136483 0c0.00516316,0 0.00852754,0.000189175 0.0100996,0.000556108 0.00240872,0.000551216 0.00443745,0.00176128 0.006065,0.00363346 0.00162592,0.0018575 0.00244296,0.00426948 0.00244296,0.00721147 0,0.00228477 -0.000469675,0.00419446 -0.00141555,0.00574047 -0.000940981,0.00155091 -0.0021168,0.00277239 -0.00358127,0.00366281 -0.00143675,0.000872487 -0.00290122,0.00145958 -0.00439505,0.00174497 -0.002032,0.000353887 -0.00497562,0.0005398 -0.00881945,0.0005398l-0.00553988 0 0 0.0139777 -0.00850471 0zm0.00850471 -0.0307947l0 0.0105155 0.0046413 0c0.00335133,0 0.00560511,-0.000190805 0.00672875,-0.00057894 0.00112852,-0.000393027 0.00200917,-0.000993167 0.00265497,-0.00181999 0.000634387,-0.000841501 0.00095892,-0.00178737 0.00095892,-0.00288165 0,-0.00135358 -0.000456628,-0.0024609 -0.00134868,-0.00333991 -0.000896949,-0.000872487 -0.00203852,-0.00142859 -0.00341167,-0.00164386 -0.00101763,-0.000172866 -0.00305615,-0.000251146 -0.00611719,-0.000251146l-0.00410639 0zm0.0307295 0.0307947l0 -0.0370668 0.0312089 0 0 0.00627212 -0.0227205 0 0 0.00822257 0.0211419 0 0 0.00623461 -0.0211419 0 0 0.0100931 0.0235278 0 0 0.00624439 -0.0320162 0zm0.0392407 0l0 -0.0370668 0.0179031 0c0.00450105,0 0.00777247,0.000331056 0.00981099,0.00099969 0.00203852,0.000667004 0.0036726,0.00184608 0.0049006,0.00354866 0.00122148,0.00171073 0.00182488,0.00365303 0.00182488,0.00583995 0,0.00278706 -0.000921411,0.00508978 -0.00278217,0.00689998 -0.00184935,0.00180368 -0.00462826,0.00295015 -0.00832858,0.00341493 0.00184119,0.000955658 0.00336763,0.00198633 0.00455976,0.00311323 0.00119539,0.00113668 0.00280663,0.00313932 0.00482885,0.0060226l0.00514686 0.00722778 -0.0101665 0 -0.00614165 -0.00806438c-0.00218529,-0.00288818 -0.00368238,-0.00470327 -0.00447985,-0.00545019 -0.000810516,-0.000751806 -0.00165528,-0.00126225 -0.00255712,-0.00154112 -0.000916519,-0.0002805 -0.00233044,-0.000420751 -0.00428742,-0.000420751l-0.00171236 0 0 0.0154764 -0.00851938 0zm0.00851938 -0.0213947l0.0062819 0c0.00407704,0 0.00662437,-0.000145143 0.007642,-0.000446844 0.00101437,-0.000296809 0.00180205,-0.000828455 0.00238588,-0.00157374 0.000561001,-0.000742021 0.000862702,-0.00166017 0.000862702,-0.00277239 0,-0.00125899 -0.00037998,-0.00225542 -0.00114809,-0.00303169 -0.000745283,-0.000761591 -0.00181836,-0.00124594 -0.00319477,-0.00145143 -0.000688204,-7.991e-005 -0.00275282,-0.000123942 -0.00620036,-0.000123942l-0.00662927 0 0 0.00940002zm0.0434123 0.0213947l0 -0.0307947 -0.0124823 0 0 -0.00627212 0.033448 0 0 0.00627212 -0.0124545 0 0 0.0307947 -0.00851123 0zm0.0262007 0l0 -0.0370668 0.0084884 0 0 0.0370668 -0.0084884 0zm0.0166001 0l0 -0.0370668 0.0312024 0 0 0.00627212 -0.0227107 0 0 0.00822257 0.0211386 0 0 0.00623461 -0.0211386 0 0 0.0100931 0.023531 0 0 0.00624439 -0.0320227 0zm0.0370652 -0.0120599l0.00827476 -0.000707774c0.000485983,0.00244785 0.00150361,0.00424012 0.00303332,0.00538495 0.00151177,0.00114646 0.00356986,0.00172703 0.00615144,0.00172703 0.00274303,0 0.00480765,-0.000512076 0.00618079,-0.00153786 0.00139435,-0.00101926 0.00209723,-0.00221465 0.00209723,-0.00357638 0,-0.000883902 -0.000298439,-0.00162592 -0.000883902,-0.00223422 -0.00058057,-0.000624603 -0.00160146,-0.00115951 -0.00305289,-0.00160635 -0.000993167,-0.000311486 -0.00326489,-0.000848024 -0.00680703,-0.00162103 -0.00455976,-0.000988274 -0.00776268,-0.00221465 -0.00958757,-0.00366771 -0.002593,-0.00204504 -0.00387971,-0.00452225 -0.00387971,-0.0074512 0,-0.0018999 0.000603402,-0.0036514 0.00182162,-0.00530504 0.00121659,-0.00164549 0.00296645,-0.00289633 0.00525449,-0.00375414 0.00229782,-0.000854548 0.00504248,-0.0012965 0.00827802,-0.0012965 0.00529852,0 0.0092663,0.00102252 0.011949,0.0030643 0.00266149,0.00204667 0.0040591,0.00476361 0.00419772,0.00817365l-0.00849166 0.000331056c-0.000370195,-0.00191132 -0.00115462,-0.00328446 -0.00235001,-0.00411129 -0.00119213,-0.00083987 -0.00299092,-0.00124757 -0.00538332,-0.00124757 -0.00246253,0 -0.00441136,0.000438689 -0.00579429,0.00132911 -0.000911626,0.000577309 -0.00135847,0.00134216 -0.00135847,0.00229782 0,0.000875748 0.000417489,0.00162919 0.00126388,0.0022652 0.00106982,0.000782792 0.00368564,0.00160962 0.00782139,0.00247232 0.00412107,0.000857809 0.00718211,0.00174823 0.0091554,0.00266149 0.00198307,0.00091978 0.00354866,0.00217225 0.00467066,0.00377534 0.00111711,0.00159494 0.00166832,0.00355844 0.00166832,0.00590192 0,0.00212821 -0.00066048,0.00411129 -0.0020059,0.00596063 -0.00134542,0.00185587 -0.00322738,0.00324532 -0.00568502,0.00413575 -0.00244622,0.000901841 -0.00550563,0.00135521 -0.00916519,0.00135521 -0.00532298,0 -0.00941633,-0.00108123 -0.0122621,-0.00324695 -0.00285067,-0.00216572 -0.00455976,-0.00532298 -0.00511098,-0.00947178zm0.0579576 0.0120599l0 -0.0367667 0.00849492 0 0 0.0305224 0.0211386 0 0 0.00624439 -0.0296336 0zm0.0354376 0l0 -0.0370668 0.00849492 0 0 0.0370668 -0.00849492 0zm0.016481 0l0 -0.0370668 0.0127253 0 0.00763874 0.0252923 0.00755231 -0.0252923 0.0127399 0 0 0.0370668 -0.007885 0 0 -0.0291786 -0.00836282 0.0291786 -0.00818996 0 -0.00831879 -0.0291786 0 0.0291786 -0.00789967 0zm0.0488511 0l0 -0.0370668 0.00849329 0 0 0.0370668 -0.00849329 0zm0.0260702 0l0 -0.0307947 -0.0124872 0 0 -0.00627212 0.0334578 0 0 0.00627212 -0.012466 0 0 0.0307947 -0.00850471 0zm0.02646 0l0 -0.0370668 0.0312089 0 0 0.00627212 -0.0227173 0 0 0.00822257 0.0211419 0 0 0.00623461 -0.0211419 0 0 0.0100931 0.0235245 0 0 0.00624439 -0.0320162 0zm0.0392016 -0.0370668l0.0155319 0c0.00350299,0 0.00616775,0.000236468 0.00800894,0.000707774 0.00247232,0.000636018 0.00458585,0.00178085 0.00633898,0.0034133 0.0017727,0.00163734 0.00310834,0.00364161 0.00402812,0.00600466 0.000918149,0.00236794 0.00137478,0.00528384 0.00137478,0.00876564 0,0.003048 -0.000430535,0.0056785 -0.00129324,0.00788989 -0.00104372,0.00269248 -0.00254733,0.00487125 -0.00451247,0.0065412 -0.001471,0.00126714 -0.00346385,0.00225216 -0.00596879,0.00296482 -0.00186728,0.000528384 -0.00437548,0.00077953 -0.00751969,0.00077953l-0.0159885 0 0 -0.0370668zm0.00849166 0.00627212l0 0.0245503 0.0063455 0c0.00237284,0 0.00408193,-0.000107634 0.00514359,-0.000353887 0.0013813,-0.000298439 0.00252287,-0.000810516 0.00342961,-0.00154112 0.000913257,-0.00071919 0.00164712,-0.00191784 0.00222606,-0.00358127 0.000570786,-0.00165202 0.000865963,-0.00392048 0.000865963,-0.00679072 0,-0.00286208 -0.000295178,-0.00506042 -0.000865963,-0.00659339 -0.00057894,-0.0015346 -0.00138619,-0.00273814 -0.00241361,-0.00358616 -0.0010372,-0.000867594 -0.00234674,-0.00144653 -0.00393516,-0.0017466 -0.00118886,-0.00023973 -0.00350952,-0.000357149 -0.00697826,-0.000357149l-0.00381774 0z"/>
  </g>
 </g>
</svg>
